<svg width="24" height="24" viewBox="0 0 24 24" fill="none" xmlns="http://www.w3.org/2000/svg">
<path d="M16.5 2.9502C14.76 2.9502 13.09 3.74673 12 5.00545C10.91 3.74673 9.24 2.9502 7.5 2.9502C4.42 2.9502 2 5.32996 2 8.35875C2 12.0759 5.4 15.1047 10.55 19.7069L12 20.9951L13.45 19.697C18.6 15.1047 22 12.0759 22 8.35875C22 5.32996 19.58 2.9502 16.5 2.9502ZM12.1 18.2416L12 18.34L11.9 18.2416C7.14 14.0033 4 11.2007 4 8.35875C4 6.392 5.5 4.91694 7.5 4.91694C9.04 4.91694 10.54 5.89048 11.07 7.2377H12.94C13.46 5.89048 14.96 4.91694 16.5 4.91694C18.5 4.91694 20 6.392 20 8.35875C20 11.2007 16.86 14.0033 12.1 18.2416Z" fill="#4F56E9"/>
</svg>
